<svg version="1.1" id="Layer_1" xmlns="http://www.w3.org/2000/svg" xmlns:xlink="http://www.w3.org/1999/xlink" x="0px" y="0px"
	 width="100%" viewBox="0 0 628 587" enable-background="new 0 0 628 587" xml:space="preserve">
<path fill="#FFFFFF" opacity="1.000000" stroke="none" 
	d="
M209.000000,588.000000 
	C139.736450,588.000000 70.472900,588.000000 1.000000,588.000000 
	C1.000000,512.645874 1.000000,437.291595 1.370534,361.601807 
	C4.522661,362.034058 7.376282,362.607330 10.072428,363.605835 
	C18.401268,366.690430 26.670055,369.937195 35.125526,373.424377 
	C41.488712,377.833893 47.688526,381.940063 54.033623,386.358887 
	C60.416046,392.463318 66.653191,398.255096 72.936066,404.399719 
	C78.275673,411.181152 83.569542,417.609772 89.002457,424.350769 
	C95.052956,431.124390 100.964424,437.585602 107.011520,444.356323 
	C113.415436,450.147400 119.683739,455.628906 126.092834,461.424896 
	C132.133759,465.547821 138.033890,469.356293 144.101410,473.488098 
	C150.497452,475.912109 156.726120,478.012756 163.161713,480.454468 
	C172.030670,482.540436 180.565933,483.375763 189.568817,482.224182 
	C204.455536,480.320038 217.450134,474.421173 230.797882,466.259613 
	C227.079025,461.628510 223.595276,457.290192 219.976624,452.640564 
	C216.597794,448.870148 213.353851,445.411041 209.976074,441.642242 
	C205.246307,436.845825 200.650375,432.359100 195.919922,427.560181 
	C193.450623,425.250793 191.207870,423.131561 188.759796,421.284515 
	C184.948257,418.408691 180.997238,415.717712 176.964661,412.631958 
	C168.230408,406.839325 159.636841,401.363098 150.900223,395.566101 
	C146.326004,392.875275 141.991608,390.296265 137.439209,388.187927 
	C131.733841,385.545746 125.849602,383.289856 119.855247,380.544128 
	C111.655876,377.581757 103.643814,374.942444 95.612541,372.296844 
	C108.869858,370.498444 121.317123,374.536224 134.145233,377.443970 
	C142.541367,380.884186 150.745285,384.000854 159.114868,387.428284 
	C164.473007,390.512787 169.665527,393.286499 175.014908,396.381836 
	C180.765335,400.172180 186.358917,403.640900 192.091522,407.420471 
	C193.646835,408.811401 195.057983,409.898254 196.480377,410.970184 
	C200.969849,414.353333 205.463516,417.730865 210.089539,421.418304 
	C217.169342,428.197784 224.115158,434.669556 231.060974,441.141327 
	C229.942535,431.819092 227.418274,423.111511 223.063599,414.594788 
	C220.059845,408.456421 217.111572,402.685242 213.994568,396.605530 
	C210.233780,391.494995 206.641724,386.692932 202.913544,381.580292 
	C199.220108,377.829285 195.662796,374.388916 191.967453,370.638733 
	C185.570190,365.844208 179.310959,361.359528 172.885605,356.561432 
	C162.378067,351.048462 151.680984,346.969269 139.812408,345.532898 
	C138.100952,345.109070 136.576767,345.208344 135.132797,344.914032 
	C122.536919,342.346802 109.822502,341.534149 96.550156,342.096069 
	C92.346405,342.350098 88.566254,342.492584 84.843681,343.032227 
	C72.455215,344.828064 59.979698,346.246246 47.738686,348.780640 
	C32.057056,352.027435 16.570576,356.216797 1.000003,360.000000 
	C1.000000,240.417267 1.000000,120.834526 1.000000,1.000000 
	C89.020737,1.000000 177.041702,1.000000 265.332397,1.375625 
	C261.068665,2.221932 256.535217,2.692614 251.582260,3.092343 
	C238.008621,5.899273 224.694717,8.199017 211.734909,11.780245 
	C187.739716,18.410929 165.334839,28.930225 144.432953,42.390549 
	C135.857178,47.913143 128.088013,54.688244 119.604095,60.945381 
	C107.541046,72.507248 95.777382,83.968842 84.162025,95.578804 
	C82.386101,97.353905 81.295509,99.814659 79.580315,102.099266 
	C67.514755,116.548325 58.135933,132.337799 49.981186,149.327759 
	C45.667362,160.166794 41.304291,170.596252 37.485931,181.221436 
	C35.541138,186.633133 34.575336,192.396652 32.984215,198.349762 
	C28.196753,215.104950 25.895462,231.827515 25.555023,249.115662 
	C25.792583,261.367065 25.747425,273.448547 27.164919,285.355896 
	C28.758011,298.738281 31.600582,311.977112 34.150223,325.230164 
	C34.346035,326.247986 36.640488,327.711853 37.766140,327.557648 
	C43.395706,326.786163 48.960754,325.543945 53.427460,324.683258 
	C51.237225,305.191986 49.035156,285.595428 46.900581,265.536377 
	C48.401119,248.238602 49.834167,231.403336 51.553642,214.259583 
	C54.638897,195.998734 59.924320,178.763931 66.909996,161.630920 
	C74.309532,143.955399 83.187920,127.494331 93.990692,111.683502 
	C102.434044,101.415184 110.633560,91.385597 119.047592,81.539345 
	C122.494415,77.505829 126.404694,73.868370 130.407959,69.910980 
	C132.734543,68.098679 134.801682,66.476646 136.773041,64.745560 
	C151.712204,51.627254 168.155045,40.800697 185.971115,31.976807 
	C202.091339,23.992828 218.702423,17.477674 236.373154,13.827344 
	C243.638290,12.326548 250.868393,10.656143 258.557251,9.034304 
	C267.519012,8.335686 276.041107,7.093399 284.556000,7.141201 
	C295.080139,7.200284 305.642731,7.936646 316.105774,9.116070 
	C325.463562,10.170912 334.708710,12.224957 344.403656,13.905163 
	C345.890411,14.296928 346.965118,14.670729 348.065521,14.939185 
	C372.711548,20.951813 395.456055,31.350182 416.615265,45.184986 
	C436.870392,58.428680 454.736694,74.447708 470.415436,92.903526 
	C481.881134,106.400063 492.084717,120.751518 500.164673,136.543137 
	C504.152069,144.336166 507.980469,152.210556 511.939392,160.424835 
	C519.916138,181.501663 526.944946,202.430771 529.094604,224.687225 
	C529.385864,227.702499 530.365906,230.534332 534.404175,230.762680 
	C539.435120,231.047165 544.446106,231.684433 549.911255,232.212418 
	C549.911255,230.300858 550.078186,228.996201 549.882629,227.748306 
	C548.975342,221.958328 548.288940,216.106964 546.924622,210.421295 
	C544.553711,200.540634 541.741882,190.765762 539.065430,180.561752 
	C535.696350,171.544754 532.703186,162.769592 528.996399,154.307007 
	C517.545044,128.163788 501.948730,104.532913 482.193268,84.093796 
	C469.904480,71.379768 456.181732,59.823959 442.003967,49.216717 
	C420.495850,33.125225 396.387054,21.526270 370.740753,13.468112 
	C361.023010,10.414762 350.926666,8.566298 340.641174,5.976582 
	C335.066864,4.856664 329.863068,3.875275 324.639069,3.017149 
	C320.104614,2.272297 315.547241,1.666984 311.000000,1.000001 
	C416.922150,1.000000 522.844299,1.000000 629.000000,1.000000 
	C629.000000,93.354095 629.000000,185.708389 628.608459,278.523651 
	C627.439026,278.796356 626.649841,278.645416 625.884888,278.414337 
	C606.626221,272.596405 587.370239,266.769958 567.908997,260.605591 
	C565.178223,259.694427 562.670349,259.020569 560.122986,258.569000 
	C549.755615,256.731110 539.376099,254.961334 528.591858,253.081665 
	C518.121643,252.053192 508.060608,251.109528 497.535645,250.096252 
	C488.713470,250.073425 480.355255,250.120193 471.561859,250.097778 
	C463.750580,251.074921 456.374512,252.121246 448.590271,253.098694 
	C441.099121,254.970474 434.016083,256.911163 426.552368,258.916626 
	C419.447571,262.043243 412.723419,265.105042 405.652222,268.202606 
	C399.703583,271.893890 394.102081,275.549408 388.198914,279.452332 
	C381.581421,285.417999 375.265594,291.136261 368.637756,297.001648 
	C362.869720,304.394409 357.413666,311.640045 351.641663,319.052124 
	C347.869080,326.105377 344.412445,332.992218 340.625000,340.056763 
	C337.917908,347.824097 335.541656,355.413696 332.997498,363.347351 
	C329.734894,373.307434 326.640259,382.923462 323.545624,392.539490 
	C324.077057,392.848328 324.608459,393.157166 325.139893,393.466034 
	C332.129669,385.993652 339.119446,378.521240 346.422729,370.915161 
	C351.840515,366.223511 356.944794,361.665588 362.364990,356.968781 
	C369.156281,351.902924 375.631653,346.975922 382.422150,341.912598 
	C390.860901,336.533691 398.984558,331.291107 407.431519,325.906921 
	C415.518066,321.881439 423.281311,317.997589 431.286804,314.057983 
	C431.529053,314.002228 432.010376,313.877563 432.285370,313.909119 
	C432.758850,313.643036 432.957306,313.345428 433.525574,313.016602 
	C440.645294,310.344421 447.395264,307.703430 454.537537,305.036743 
	C462.655426,302.690643 470.380951,300.370209 478.520630,298.029663 
	C484.417877,296.933228 489.901001,295.856934 495.384155,294.780640 
	C495.418152,294.974365 495.452148,295.168091 495.486145,295.361816 
	C489.657227,297.626251 483.828339,299.890717 477.638977,302.199005 
	C467.975464,306.650085 458.672394,311.057343 449.059875,315.632690 
	C439.153351,321.494934 429.556274,327.189087 419.596924,332.927002 
	C411.142426,338.941742 403.050140,344.912689 394.647186,351.024506 
	C389.211884,355.738098 384.087250,360.310822 378.653992,365.021179 
	C372.858704,371.090668 367.372131,377.022552 361.579010,383.085693 
	C358.163239,386.761658 355.054016,390.306335 351.621216,393.995728 
	C347.176239,399.948181 342.943970,405.681305 338.967407,411.586639 
	C335.593781,416.596588 332.515411,421.805359 329.195709,427.102814 
	C350.676086,437.023865 372.487274,438.888824 394.726593,437.904480 
	C398.195984,437.750916 401.629211,436.780823 405.486420,436.107880 
	C412.965210,434.034729 420.036774,432.041992 427.484344,430.020508 
	C435.278290,426.344147 442.696259,422.696564 450.475342,419.035278 
	C456.926910,414.697449 463.017365,410.373322 469.423767,405.914856 
	C476.868195,399.537354 483.996674,393.294189 491.429993,386.915955 
	C498.674103,378.764679 505.613403,370.748474 512.678589,362.641541 
	C512.804504,362.550751 512.917297,362.257172 513.196350,362.142090 
	C513.609863,361.686890 513.744324,361.346802 514.013306,360.689453 
	C519.057312,353.907990 523.966797,347.443756 529.018677,340.666016 
	C534.159424,334.600647 539.157776,328.848724 544.459412,322.959412 
	C548.212708,319.229034 551.662781,315.636108 555.461426,312.018127 
	C559.909607,308.678314 564.009277,305.363556 568.467163,302.024261 
	C573.236877,299.374237 577.648315,296.748749 582.299683,294.060059 
	C582.539551,293.996857 583.013794,293.851227 583.280640,293.876160 
	C583.743347,293.614349 583.939209,293.327576 584.498779,293.012543 
	C589.261475,291.037354 593.660522,289.090424 598.452393,287.082947 
	C608.896851,285.014923 618.948425,283.007477 629.000000,281.000000 
	C629.000000,383.271393 629.000000,485.542816 629.000000,588.000000 
	C490.645813,588.000000 352.291565,588.000000 213.574493,587.668152 
	C228.805649,577.835388 244.399628,568.334473 260.343689,558.790527 
	C269.661713,554.200623 278.576904,549.545349 287.615021,545.142578 
	C294.324310,541.874207 301.193207,538.933533 308.350037,535.801575 
	C314.268280,533.508728 319.771179,531.107422 325.398865,529.046997 
	C335.892853,525.204834 346.459381,521.560791 357.389709,517.890991 
	C365.264618,515.962769 372.697235,513.765991 380.238678,512.046448 
	C389.794739,509.867493 399.439240,508.076385 409.491180,506.070435 
	C424.372040,505.015228 438.800049,503.875244 453.247192,503.084808 
	C457.307312,502.862640 461.428406,503.617249 465.512970,504.012268 
	C471.709930,504.611694 477.898743,505.294708 484.092255,505.930298 
	C488.128693,506.344513 492.167297,506.737640 496.204926,507.140198 
	C493.784149,505.253357 491.131622,504.664154 488.570923,503.802063 
	C471.436584,498.033539 453.628082,495.537933 435.770447,494.210449 
	C421.676483,493.162781 407.440125,493.855072 393.272125,494.087402 
	C389.136963,494.155182 385.019348,495.296387 380.450958,495.968262 
	C361.993164,497.496979 344.274414,500.594086 326.554901,505.923615 
	C308.059631,511.969971 289.970886,517.962646 271.499329,523.975220 
	C254.865051,531.577515 238.613556,539.159851 222.023163,546.815002 
	C209.959686,553.345032 198.235123,559.802185 185.400711,566.870544 
	C188.034149,569.038025 189.500610,570.144470 190.853424,571.375854 
	C196.919952,576.897827 202.954132,582.455322 209.000000,588.000000 
M234.166321,384.663879 
	C242.039154,393.550690 249.911972,402.437500 257.784790,411.324341 
	C258.059357,411.080322 258.333923,410.836334 258.608490,410.592316 
	C255.116837,400.713135 251.625198,390.833923 248.025620,380.147888 
	C246.054291,372.415070 244.082947,364.682251 242.020538,356.095947 
	C241.680954,353.691986 241.392578,351.279419 240.991577,348.885742 
	C240.041260,343.212952 239.037491,337.549164 238.010788,330.987152 
	C237.654755,324.003082 237.310440,317.018311 236.910446,310.036743 
	C236.888824,309.659393 236.400436,309.308807 236.022720,308.021606 
	C235.959732,301.682068 235.896759,295.342499 235.977539,288.103424 
	C236.262558,282.403198 236.547577,276.703003 236.976074,270.142517 
	C237.689804,263.775116 238.403534,257.407684 239.804718,250.587814 
	C241.148575,243.391846 242.492416,236.195877 243.979797,228.186401 
	C245.367905,222.474075 246.756012,216.761734 248.792282,210.666611 
	C251.139359,203.444641 253.486435,196.222687 256.155365,188.347733 
	C257.320374,186.092010 258.485352,183.836288 259.859375,181.175858 
	C259.859375,182.725189 259.859375,183.841461 259.180328,185.406067 
	C258.509186,191.271667 257.838013,197.137253 257.024048,203.844543 
	C256.404938,209.897064 255.785812,215.949585 255.023895,222.853195 
	C254.662918,230.184662 254.301956,237.516129 253.188782,245.315842 
	C253.181412,254.879379 253.174057,264.442902 253.029816,274.898407 
	C253.742355,283.934174 254.454880,292.969971 255.029938,302.878174 
	C256.075745,310.587067 257.121552,318.295990 258.028229,326.857819 
	C259.074493,332.906586 260.120789,338.955322 261.306488,345.781342 
	C262.593384,350.855591 263.880310,355.929810 265.024323,361.803650 
	C266.738342,367.870667 268.452393,373.937653 270.271759,380.748199 
	C272.808990,387.512207 275.346222,394.276215 277.990387,401.810333 
	C281.087982,409.213959 284.185547,416.617584 287.405060,424.312592 
	C288.918884,423.474426 290.343842,422.983185 291.386566,422.060120 
	C298.536896,415.730835 305.378204,409.028442 312.787628,403.024536 
	C317.355469,399.323120 315.168030,394.217804 316.986633,389.184448 
	C318.602295,381.124878 320.217987,373.065338 322.185699,364.313904 
	C324.734680,356.877533 327.283661,349.441132 330.149841,341.345673 
	C333.377625,334.898499 336.605377,328.451324 340.141052,321.364380 
	C342.196503,318.331909 344.027344,315.112823 346.357239,312.308350 
	C350.399048,307.443237 349.334747,302.220367 348.010162,296.005127 
	C346.950958,289.005859 345.891754,282.006622 344.979401,274.163055 
	C343.035492,265.414215 341.091583,256.665375 339.023926,247.119720 
	C336.366180,238.368973 333.708466,229.618225 330.980957,220.094528 
	C328.692566,214.048340 326.404144,208.002167 324.021088,201.181595 
	C321.699463,195.410919 319.377869,189.640228 316.984039,183.120728 
	C315.005188,178.039307 313.026337,172.957886 311.006744,167.087830 
	C309.709869,162.710938 308.413025,158.334045 307.019196,153.118149 
	C306.051331,148.064438 305.083435,143.010727 304.018585,137.037033 
	C303.623444,131.691635 303.228271,126.346230 302.972717,120.136681 
	C304.603333,98.968727 307.301025,78.104774 320.237366,59.904514 
	C305.535339,71.246986 291.228149,82.686157 277.724335,95.005920 
	C267.710327,104.141876 258.588806,114.282104 249.372879,124.255127 
	C245.186203,128.785721 241.733337,133.994431 237.319336,139.187775 
	C231.839890,147.109650 226.360443,155.031525 220.269257,163.281723 
	C216.828400,169.486526 213.387543,175.691330 209.319092,182.240814 
	C205.934753,189.828018 202.550415,197.415237 198.825912,205.672638 
	C196.267365,212.781891 193.708817,219.891144 191.022263,227.795914 
	C189.736618,233.863831 188.450958,239.931763 186.766098,246.722900 
	C185.899216,253.149506 185.032318,259.576111 184.028351,266.930084 
	C184.019684,268.755463 183.896744,270.588867 184.024826,272.404602 
	C184.344864,276.941620 184.778839,281.470581 185.028015,286.899384 
	C185.740295,292.266815 186.452560,297.634216 187.044861,303.785431 
	C189.085587,309.858368 191.126312,315.931335 193.042892,322.745087 
	C196.679855,329.866577 200.316818,336.988037 204.240067,344.749695 
	C208.750259,351.525665 213.260468,358.301666 218.140152,365.662598 
	C223.384628,371.789856 228.629105,377.917114 234.166321,384.663879 
M149.563583,543.952332 
	C149.762405,543.653137 149.961227,543.353882 150.907928,542.983704 
	C158.542145,539.980652 166.108368,536.788513 173.824722,534.013916 
	C189.876099,528.242249 206.007004,522.691772 222.894302,517.009216 
	C226.878922,515.695374 230.794846,514.097717 234.859360,513.114014 
	C260.342346,506.946167 285.725922,500.265228 311.402435,495.029266 
	C335.126282,490.191467 359.114105,486.506866 383.105225,483.174866 
	C397.289276,481.204895 411.705322,480.904877 426.547333,479.896515 
	C426.740448,479.610809 426.933563,479.325104 428.047546,479.005798 
	C435.704041,478.963531 443.360565,478.921265 451.658539,479.018341 
	C452.153320,478.696625 452.648102,478.374908 454.024963,478.008728 
	C456.684326,477.950104 459.343719,477.891510 462.930450,477.973328 
	C488.141083,479.202820 513.351685,480.432343 538.199829,481.644165 
	C529.538513,479.830383 520.440063,477.626770 511.231934,476.072693 
	C499.869080,474.154999 488.415009,472.777588 476.100616,471.024323 
	C473.955231,471.010834 471.806885,471.065094 469.664917,470.972839 
	C456.109070,470.388885 442.554626,469.772552 428.107758,469.024994 
	C421.272919,469.015137 414.425598,468.733673 407.605682,469.047699 
	C389.169098,469.896545 370.739471,470.920441 352.317017,472.038300 
	C344.797394,472.494568 337.262238,473.079193 329.806885,474.124298 
	C317.418549,475.860901 305.056854,477.837280 292.742737,480.041168 
	C277.712006,482.731201 262.658905,485.390869 247.767029,488.737885 
	C229.733673,492.790985 211.826035,497.422699 193.928757,502.054321 
	C184.548386,504.481873 175.306503,507.444702 165.227356,510.043762 
	C158.726471,512.031555 152.161118,513.832092 145.737152,516.043396 
	C128.459412,521.990723 111.242058,528.113586 93.241714,534.024292 
	C75.849174,540.946838 58.456638,547.869385 39.870182,555.267151 
	C42.702511,557.046570 44.296413,558.047913 46.181805,559.681702 
	C53.388336,564.900085 60.563847,570.162109 67.814789,575.318054 
	C71.306160,577.800659 74.600700,578.406128 78.981941,576.171082 
	C93.439636,568.795776 108.182251,561.974548 122.870064,555.056519 
	C130.873550,551.286865 138.987289,547.751282 147.702774,544.016174 
	C148.138779,543.972900 148.574783,543.929688 149.563583,543.952332 
M602.004150,34.518204 
	C601.995605,33.685604 602.190491,32.788242 601.948975,32.029819 
	C594.263794,7.893172 575.118958,-0.391489 554.879089,3.343814 
	C539.855103,6.116524 529.718323,16.458210 525.521973,31.160145 
	C521.463745,45.378166 524.932312,58.581493 535.055420,69.442482 
	C551.437134,87.018341 582.784424,84.994652 596.096924,64.354065 
	C601.794678,55.519855 604.770325,46.023235 602.004150,34.518204 
z"/>
<path fill="#FEDC11" opacity="1.000000" stroke="none" 
	d="
M259.993591,558.833557 
	C244.399628,568.334473 228.805649,577.835388 213.105835,587.668152 
	C211.933334,588.000000 210.866653,588.000000 209.399994,588.000000 
	C202.954132,582.455322 196.919952,576.897827 190.853424,571.375854 
	C189.500610,570.144470 188.034149,569.038025 185.400711,566.870544 
	C198.235123,559.802185 209.959686,553.345032 222.452988,546.911377 
	C234.114319,549.950500 245.024750,552.904724 255.878998,556.052490 
	C257.392120,556.491333 258.628876,557.882996 259.993591,558.833557 
z"/>
<path fill="#A4E40A" opacity="1.000000" stroke="none" 
	d="
M1.000003,360.250000 
	C16.570576,356.216797 32.057056,352.027435 47.738686,348.780640 
	C59.979698,346.246246 72.455215,344.828064 84.843681,343.032227 
	C88.566254,342.492584 92.346405,342.350098 96.502853,342.437866 
	C95.680054,343.867188 94.606239,345.223724 93.205879,345.849457 
	C77.223198,352.991425 61.156384,359.945801 45.197887,367.140656 
	C41.615417,368.755798 38.365284,371.108093 34.962154,373.121002 
	C26.670055,369.937195 18.401268,366.690430 10.072428,363.605835 
	C7.376282,362.607330 4.522661,362.034058 1.370534,361.133148 
	C1.000000,361.000000 1.000000,360.500000 1.000003,360.250000 
z"/>
<path fill="#A7E70A" opacity="1.000000" stroke="none" 
	d="
M629.000000,280.666687 
	C618.948425,283.007477 608.896851,285.014923 598.394653,286.735535 
	C597.553772,285.944427 597.253296,285.318451 596.759705,284.954010 
	C588.157715,278.602875 579.466858,272.369049 570.976624,265.872772 
	C569.581970,264.805695 569.046387,262.615936 568.113708,260.945038 
	C587.370239,266.769958 606.626221,272.596405 625.884888,278.414337 
	C626.649841,278.645416 627.439026,278.796356 628.608459,278.992310 
	C629.000000,279.444458 629.000000,279.888885 629.000000,280.666687 
z"/>
<path fill="#FEF106" opacity="1.000000" stroke="none" 
	d="
M310.531342,1.000001 
	C315.547241,1.666984 320.104614,2.272297 324.639069,3.017149 
	C329.863068,3.875275 335.066864,4.856664 340.683777,6.320895 
	C342.059967,9.184220 343.031769,11.511171 344.003571,13.838123 
	C334.708710,12.224957 325.463562,10.170912 316.105774,9.116070 
	C305.642731,7.936646 295.080139,7.200284 284.556000,7.141201 
	C276.041107,7.093399 267.519012,8.335686 258.247650,8.887873 
	C255.664047,6.901117 253.832901,5.032207 252.001740,3.163297 
	C256.535217,2.692614 261.068665,2.221932 265.801086,1.375625 
	C280.687561,1.000000 295.375122,1.000000 310.531342,1.000001 
z"/>
<path fill="#FEF604" opacity="1.000000" stroke="none" 
	d="
M344.403656,13.905161 
	C343.031769,11.511171 342.059967,9.184220 341.045532,6.512956 
	C350.926666,8.566298 361.023010,10.414762 370.740753,13.468112 
	C396.387054,21.526270 420.495850,33.125225 442.003967,49.216717 
	C456.181732,59.823959 469.904480,71.379768 482.193268,84.093796 
	C501.948730,104.532913 517.545044,128.163788 528.996399,154.307007 
	C532.703186,162.769592 535.696350,171.544754 538.691589,180.574600 
	C537.324036,180.554077 536.049988,180.387924 535.274597,179.677521 
	C529.521545,174.406708 523.952209,168.932892 518.131470,163.739944 
	C516.360046,162.159546 513.981384,161.259674 511.880829,160.048126 
	C507.980469,152.210556 504.152069,144.336166 500.164673,136.543137 
	C492.084717,120.751518 481.881134,106.400063 470.415436,92.903526 
	C454.736694,74.447708 436.870392,58.428680 416.615265,45.184986 
	C395.456055,31.350182 372.711548,20.951813 348.065521,14.939185 
	C346.965118,14.670729 345.890411,14.296928 344.403656,13.905161 
z"/>
<path fill="#7CC617" opacity="1.000000" stroke="none" 
	d="
M428.999725,469.166870 
	C442.554626,469.772552 456.109070,470.388885 469.664917,470.972839 
	C471.806885,471.065094 473.955231,471.010834 476.493896,471.458221 
	C474.316833,472.927216 471.748901,473.968292 469.175537,474.995697 
	C466.787720,475.949005 464.394135,476.887726 462.003082,477.832886 
	C459.343719,477.891510 456.684326,477.950104 453.280701,478.029175 
	C452.029968,478.326080 451.523499,478.602539 451.017059,478.878998 
	C443.360565,478.921265 435.704041,478.963531 427.358582,479.091858 
	C426.371429,479.325348 426.153900,479.550690 426.017029,479.853943 
	C411.705322,480.904877 397.289276,481.204895 383.105225,483.174866 
	C359.114105,486.506866 335.126282,490.191467 311.402435,495.029266 
	C285.725922,500.265228 260.342346,506.946167 234.859360,513.114014 
	C230.794846,514.097717 226.878922,515.695374 222.146301,516.877319 
	C220.448608,516.589050 219.456268,516.169617 218.555588,516.315674 
	C203.113602,518.819214 187.694183,521.462952 172.247147,523.934265 
	C148.988205,527.655212 125.721710,531.333008 102.429184,534.834595 
	C99.714523,535.242737 96.814705,534.419250 94.000732,534.166748 
	C111.242058,528.113586 128.459412,521.990723 145.737152,516.043396 
	C152.161118,513.832092 158.726471,512.031555 165.695602,510.458923 
	C169.800842,510.855591 173.507324,511.289093 177.063141,510.742493 
	C195.011063,507.983551 212.904648,504.872711 230.846176,502.070282 
	C251.240189,498.884735 271.679352,495.988129 292.071838,492.793304 
	C312.132904,489.650360 332.150177,486.228668 352.204712,483.043091 
	C375.849670,479.287262 399.521301,475.698853 423.157013,471.886810 
	C425.197723,471.557678 427.056458,470.100189 428.999725,469.166870 
z"/>
<path fill="#6CBA1C" opacity="1.000000" stroke="none" 
	d="
M512.552734,362.732300 
	C505.613403,370.748474 498.674103,378.764679 491.115753,386.769958 
	C469.715546,371.674225 448.880615,356.662354 428.210510,341.426849 
	C425.068176,339.110626 422.690521,335.756989 419.959167,332.883209 
	C429.556274,327.189087 439.153351,321.494934 449.376221,315.879333 
	C460.675903,323.975647 471.336731,332.010986 482.027588,340.006165 
	C492.186310,347.603394 502.376434,355.158600 512.552734,362.732300 
z"/>
<path fill="#5DAE20" opacity="1.000000" stroke="none" 
	d="
M419.596924,332.927002 
	C422.690521,335.756989 425.068176,339.110626 428.210510,341.426849 
	C448.880615,356.662354 469.715546,371.674225 490.810944,386.905029 
	C483.996674,393.294189 476.868195,399.537354 469.099548,405.775452 
	C466.499573,404.548309 464.456940,403.440369 462.592682,402.086761 
	C442.395233,387.421387 422.190796,372.764954 402.090668,357.966949 
	C399.421509,356.001892 397.321472,353.263763 394.957855,350.883636 
	C403.050140,344.912689 411.142426,338.941742 419.596924,332.927002 
z"/>
<path fill="#86CE14" opacity="1.000000" stroke="none" 
	d="
M477.999420,302.155151 
	C483.828339,299.890717 489.657227,297.626251 495.486145,295.361816 
	C495.452148,295.168091 495.418152,294.974365 495.384155,294.780640 
	C489.901001,295.856934 484.417877,296.933228 478.209686,297.883972 
	C462.702118,286.861725 447.885345,276.010986 433.172546,265.020996 
	C430.851624,263.287354 429.001099,260.924011 426.933075,258.851807 
	C434.016083,256.911163 441.099121,254.970474 448.633514,253.433899 
	C450.429352,255.245758 451.599518,256.890625 453.144287,258.025787 
	C477.374725,275.831360 501.606750,293.635712 525.955078,311.279358 
	C531.804810,315.518280 538.077759,319.173279 544.156128,323.096802 
	C539.157776,328.848724 534.159424,334.600647 528.676880,340.628876 
	C513.085266,330.062134 497.928345,319.286652 482.928558,308.296692 
	C480.883453,306.798279 479.623108,304.228760 477.999420,302.155151 
z"/>
<path fill="#6CBA1C" opacity="1.000000" stroke="none" 
	d="
M339.147675,247.916519 
	C341.091583,256.665375 343.035492,265.414215 344.525391,274.591614 
	C329.340515,279.530731 314.618225,284.069519 299.876465,288.544098 
	C284.983490,293.064453 270.071228,297.521149 255.167419,302.005737 
	C254.454880,292.969971 253.742355,283.934174 253.503494,274.450562 
	C256.225464,273.540253 258.523987,273.244751 260.713074,272.585663 
	C268.933868,270.110687 277.128143,267.546051 285.315643,264.962128 
	C303.265045,259.297394 321.204285,253.600357 339.147675,247.916519 
z"/>
<path fill="#80C916" opacity="1.000000" stroke="none" 
	d="
M428.553741,469.095917 
	C427.056458,470.100189 425.197723,471.557678 423.157013,471.886810 
	C399.521301,475.698853 375.849670,479.287262 352.204712,483.043091 
	C332.150177,486.228668 312.132904,489.650360 292.071838,492.793304 
	C271.679352,495.988129 251.240189,498.884735 230.846176,502.070282 
	C212.904648,504.872711 195.011063,507.983551 177.063141,510.742493 
	C173.507324,511.289093 169.800842,510.855591 166.082962,510.519958 
	C175.306503,507.444702 184.548386,504.481873 193.928757,502.054321 
	C211.826035,497.422699 229.733673,492.790985 247.767029,488.737885 
	C262.658905,485.390869 277.712006,482.731201 292.742737,480.041168 
	C305.056854,477.837280 317.418549,475.860901 329.806885,474.124298 
	C337.262238,473.079193 344.797394,472.494568 352.317017,472.038300 
	C370.739471,470.920441 389.169098,469.896545 407.605682,469.047699 
	C414.425598,468.733673 421.272919,469.015137 428.553741,469.095917 
z"/>
<path fill="#8BD112" opacity="1.000000" stroke="none" 
	d="
M72.890335,404.046875 
	C66.653191,398.255096 60.416046,392.463318 54.363846,386.217712 
	C63.309029,381.815094 72.052788,377.829224 80.832909,373.925171 
	C99.300850,365.713562 117.803436,357.579468 136.237640,349.293060 
	C137.717438,348.627869 138.780273,347.035187 140.036865,345.873505 
	C151.680984,346.969269 162.378067,351.048462 172.729355,356.884491 
	C172.106522,358.036682 171.549896,358.725769 170.829590,359.041901 
	C161.602997,363.091370 152.284821,366.940430 143.145279,371.175659 
	C139.866898,372.694794 137.005005,375.112701 133.953033,377.120422 
	C121.317123,374.536224 108.869858,370.498444 95.612541,372.296844 
	C103.643814,374.942444 111.655876,377.581757 119.810898,380.906586 
	C117.441231,383.307312 115.114403,385.433472 112.384354,386.667786 
	C99.279449,392.593018 86.065544,398.277130 72.890335,404.046875 
z"/>
<path fill="#7BC517" opacity="1.000000" stroke="none" 
	d="
M339.085815,247.518127 
	C321.204285,253.600357 303.265045,259.297394 285.315643,264.962128 
	C277.128143,267.546051 268.933868,270.110687 260.713074,272.585663 
	C258.523987,273.244751 256.225464,273.540253 253.571930,274.004578 
	C253.174057,264.442902 253.181412,254.879379 253.794846,245.381378 
	C255.512299,245.500015 256.720245,245.867447 257.720917,245.560089 
	C280.876923,238.448059 304.021118,231.296677 327.123260,224.012329 
	C328.614685,223.542068 329.749847,221.941986 331.050751,220.867462 
	C333.708466,229.618225 336.366180,238.368973 339.085815,247.518127 
z"/>
<path fill="#5DAE20" opacity="1.000000" stroke="none" 
	d="
M255.098679,302.441956 
	C270.071228,297.521149 284.983490,293.064453 299.876465,288.544098 
	C314.618225,284.069519 329.340515,279.530731 344.451965,275.013733 
	C345.891754,282.006622 346.950958,289.005859 347.871887,296.766785 
	C346.011200,298.437164 344.378540,299.625702 342.552460,300.211334 
	C324.285492,306.069580 306.016174,311.924225 287.684875,317.576874 
	C277.908966,320.591339 268.010498,323.208435 258.167358,326.004883 
	C257.121552,318.295990 256.075745,310.587067 255.098679,302.441956 
z"/>
<path fill="#C2FC01" opacity="1.000000" stroke="none" 
	d="
M237.947617,138.895538 
	C241.733337,133.994431 245.186203,128.785721 249.372879,124.255127 
	C258.588806,114.282104 267.710327,104.141876 277.724335,95.005920 
	C291.228149,82.686157 305.535339,71.246986 320.237366,59.904514 
	C307.301025,78.104774 304.603333,98.968727 302.530945,120.621140 
	C283.484222,126.864410 264.901154,132.696030 246.249146,138.298126 
	C243.656082,139.076950 240.723190,138.724365 237.947617,138.895538 
z"/>
<path fill="#78C318" opacity="1.000000" stroke="none" 
	d="
M93.621223,534.095520 
	C96.814705,534.419250 99.714523,535.242737 102.429184,534.834595 
	C125.721710,531.333008 148.988205,527.655212 172.247147,523.934265 
	C187.694183,521.462952 203.113602,518.819214 218.555588,516.315674 
	C219.456268,516.169617 220.448608,516.589050 221.751770,516.897888 
	C206.007004,522.691772 189.876099,528.242249 173.824722,534.013916 
	C166.108368,536.788513 158.542145,539.980652 150.296082,543.085449 
	C149.373047,543.336792 149.148575,543.569885 149.010788,543.886414 
	C148.574783,543.929688 148.138779,543.972900 147.119049,543.759155 
	C140.998703,544.061462 135.425415,544.381653 129.932114,545.223755 
	C111.486763,548.051208 93.062111,551.016785 74.645393,554.026550 
	C65.043213,555.595825 55.474258,557.368408 45.890305,559.049194 
	C44.296413,558.047913 42.702511,557.046570 39.870182,555.267151 
	C58.456638,547.869385 75.849174,540.946838 93.621223,534.095520 
z"/>
<path fill="#489E27" opacity="1.000000" stroke="none" 
	d="
M361.885559,382.954437 
	C367.372131,377.022552 372.858704,371.090668 378.694702,365.376648 
	C380.121765,366.775909 381.039185,368.174316 382.301025,369.106476 
	C404.880585,385.787598 427.501862,402.412231 450.114197,419.048981 
	C442.696259,422.696564 435.278290,426.344147 427.163239,429.882904 
	C425.737366,429.377960 424.952026,429.059357 424.288116,428.574463 
	C403.479980,413.377777 382.683655,398.164856 361.885559,382.954437 
z"/>
<path fill="#A7E70A" opacity="1.000000" stroke="none" 
	d="
M199.166077,205.002457 
	C202.550415,197.415237 205.934753,189.828018 209.868607,182.360962 
	C211.836029,182.395599 213.339218,182.588120 214.659195,182.183273 
	C238.681915,174.815338 262.676086,167.354309 286.692169,159.964676 
	C293.474213,157.877869 300.306793,155.955139 307.116180,153.957153 
	C308.413025,158.334045 309.709869,162.710938 310.963318,167.847336 
	C309.908844,169.374832 309.009277,170.494720 307.869293,170.856110 
	C296.987122,174.305679 286.084564,177.695160 275.143951,180.954468 
	C270.099274,182.457321 264.957245,183.633438 259.859375,184.957718 
	C259.859375,183.841461 259.859375,182.725189 259.859375,181.175858 
	C258.485352,183.836288 257.320374,186.092010 255.600800,188.675079 
	C254.075272,189.150940 253.066193,189.177307 252.139160,189.466599 
	C241.137924,192.899704 230.184647,196.491623 219.143295,199.789093 
	C212.553009,201.757233 205.829636,203.279663 199.166077,205.002457 
z"/>
<path fill="#51A524" opacity="1.000000" stroke="none" 
	d="
M450.475342,419.035278 
	C427.501862,402.412231 404.880585,385.787598 382.301025,369.106476 
	C381.039185,368.174316 380.121765,366.775909 379.003357,365.239044 
	C384.087250,360.310822 389.211884,355.738098 394.647186,351.024506 
	C397.321472,353.263763 399.421509,356.001892 402.090668,357.966949 
	C422.190796,372.764954 442.395233,387.421387 462.592682,402.086761 
	C464.456940,403.440369 466.499573,404.548309 468.783600,405.909729 
	C463.017365,410.373322 456.926910,414.697449 450.475342,419.035278 
z"/>
<path fill="#7BC517" opacity="1.000000" stroke="none" 
	d="
M477.638977,302.199005 
	C479.623108,304.228760 480.883453,306.798279 482.928558,308.296692 
	C497.928345,319.286652 513.085266,330.062134 528.534424,340.942383 
	C523.966797,347.443756 519.057312,353.907990 513.787720,360.839081 
	C513.257568,361.623016 513.087402,361.940094 512.917297,362.257172 
	C512.917297,362.257172 512.804504,362.550751 512.678589,362.641541 
	C502.376434,355.158600 492.186310,347.603394 482.027588,340.006165 
	C471.336731,332.010986 460.675903,323.975647 449.685669,315.711243 
	C458.672394,311.057343 467.975464,306.650085 477.638977,302.199005 
z"/>
<path fill="#6CBA1C" opacity="1.000000" stroke="none" 
	d="
M106.875893,444.046814 
	C100.964424,437.585602 95.052956,431.124390 89.394402,424.334229 
	C90.447624,423.821289 91.299881,423.756958 92.040634,423.435608 
	C107.667099,416.656250 123.330200,409.957336 138.865143,402.973602 
	C143.125458,401.058350 146.994598,398.272980 151.043243,395.886902 
	C159.636841,401.363098 168.230408,406.839325 176.641266,412.787750 
	C175.781723,413.740479 175.162949,414.351654 174.419403,414.681854 
	C163.498764,419.531555 152.582458,424.392029 141.622452,429.151733 
	C130.063980,434.171356 118.459991,439.086182 106.875893,444.046814 
z"/>
<path fill="#98DC0E" opacity="1.000000" stroke="none" 
	d="
M139.812408,345.532898 
	C138.780273,347.035187 137.717438,348.627869 136.237640,349.293060 
	C117.803436,357.579468 99.300850,365.713562 80.832909,373.925171 
	C72.052788,377.829224 63.309029,381.815094 54.218563,385.905029 
	C47.688526,381.940063 41.488712,377.833893 35.125526,373.424377 
	C38.365284,371.108093 41.615417,368.755798 45.197887,367.140656 
	C61.156384,359.945801 77.223198,352.991425 93.205879,345.849457 
	C94.606239,345.223724 95.680054,343.867188 96.952835,342.508301 
	C109.822502,341.534149 122.536919,342.346802 135.132797,344.914032 
	C136.576767,345.208344 138.100952,345.109070 139.812408,345.532898 
z"/>
<path fill="#8BD112" opacity="1.000000" stroke="none" 
	d="
M544.459351,322.959381 
	C538.077759,319.173279 531.804810,315.518280 525.955078,311.279358 
	C501.606750,293.635712 477.374725,275.831360 453.144287,258.025787 
	C451.599518,256.890625 450.429352,255.245758 449.041687,253.502792 
	C456.374512,252.121246 463.750580,251.074921 471.604858,250.432190 
	C473.781769,252.587677 475.273895,254.619705 477.211090,256.048126 
	C496.476074,270.253235 515.773071,284.415985 535.155518,298.460236 
	C541.669006,303.179779 548.452698,307.526215 555.112854,312.043213 
	C551.662781,315.636108 548.212708,319.229034 544.459351,322.959381 
z"/>
<path fill="#51A524" opacity="1.000000" stroke="none" 
	d="
M258.097778,326.431335 
	C268.010498,323.208435 277.908966,320.591339 287.684875,317.576874 
	C306.016174,311.924225 324.285492,306.069580 342.552460,300.211334 
	C344.378540,299.625702 346.011200,298.437164 347.893280,297.204193 
	C349.334747,302.220367 350.399048,307.443237 346.357239,312.308350 
	C344.027344,315.112823 342.196503,318.331909 339.600098,321.692322 
	C319.941223,327.887512 300.844910,333.826599 281.693756,339.583313 
	C274.920380,341.619324 268.013184,343.210083 261.167053,345.004089 
	C260.120789,338.955322 259.074493,332.906586 258.097778,326.431335 
z"/>
<path fill="#5DAE20" opacity="1.000000" stroke="none" 
	d="
M107.011520,444.356323 
	C118.459991,439.086182 130.063980,434.171356 141.622452,429.151733 
	C152.582458,424.392029 163.498764,419.531555 174.419403,414.681854 
	C175.162949,414.351654 175.781723,413.740479 176.781921,413.104187 
	C180.997238,415.717712 184.948257,418.408691 188.759796,421.284515 
	C191.207870,423.131561 193.450623,425.250793 195.767166,427.883728 
	C195.046646,429.212646 194.467499,430.182800 193.623795,430.557983 
	C178.975510,437.071960 164.264511,443.445343 149.633041,449.996490 
	C141.675842,453.559235 133.841690,457.396820 125.952042,461.110443 
	C119.683739,455.628906 113.415436,450.147400 107.011520,444.356323 
z"/>
<path fill="#8BD112" opacity="1.000000" stroke="none" 
	d="
M331.015869,220.480988 
	C329.749847,221.941986 328.614685,223.542068 327.123260,224.012329 
	C304.021118,231.296677 280.876923,238.448059 257.720917,245.560089 
	C256.720245,245.867447 255.512299,245.500015 254.170959,245.147263 
	C254.301956,237.516129 254.662918,230.184662 255.500702,222.426865 
	C257.287842,221.844452 258.658325,221.883621 259.899139,221.501678 
	C270.677826,218.183746 281.413818,214.726669 292.201019,211.437180 
	C302.815918,208.200211 313.475647,205.110397 324.115723,201.955994 
	C326.404144,208.002167 328.692566,214.048340 331.015869,220.480988 
z"/>
<path fill="#338E2D" opacity="1.000000" stroke="none" 
	d="
M405.079163,436.188293 
	C401.629211,436.780823 398.195984,437.750916 394.726593,437.904480 
	C372.487274,438.888824 350.676086,437.023865 329.195709,427.102814 
	C332.515411,421.805359 335.593781,416.596588 338.967407,411.586639 
	C342.943970,405.681305 347.176239,399.948181 351.666504,394.351135 
	C353.528381,396.287231 354.764313,398.360931 356.555115,399.682892 
	C371.063019,410.392517 385.693146,420.936432 400.231995,431.604462 
	C402.011047,432.909821 403.471191,434.649780 405.079163,436.188293 
z"/>
<path fill="#7BC517" opacity="1.000000" stroke="none" 
	d="
M150.900208,395.566101 
	C146.994598,398.272980 143.125458,401.058350 138.865143,402.973602 
	C123.330200,409.957336 107.667099,416.656250 92.040634,423.435608 
	C91.299881,423.756958 90.447624,423.821289 89.255356,424.021851 
	C83.569542,417.609772 78.275673,411.181152 72.936073,404.399719 
	C86.065544,398.277130 99.279449,392.593018 112.384354,386.667786 
	C115.114403,385.433472 117.441231,383.307312 119.998215,381.229675 
	C125.849602,383.289856 131.733841,385.545746 137.439209,388.187927 
	C141.991608,390.296265 146.326004,392.875275 150.900208,395.566101 
z"/>
<path fill="#94D90F" opacity="1.000000" stroke="none" 
	d="
M555.461426,312.018127 
	C548.452698,307.526215 541.669006,303.179779 535.155518,298.460236 
	C515.773071,284.415985 496.476074,270.253235 477.211090,256.048126 
	C475.273895,254.619705 473.781769,252.587677 472.040070,250.501373 
	C480.355255,250.120193 488.713470,250.073425 497.579376,250.432434 
	C499.077606,251.902725 499.930573,253.153259 501.079803,254.003082 
	C513.069763,262.869354 525.036987,271.769196 537.153198,280.460938 
	C547.374084,287.793030 557.783142,294.862885 568.108887,302.048828 
	C564.009277,305.363556 559.909607,308.678314 555.461426,312.018127 
z"/>
<path fill="#B0EE07" opacity="1.000000" stroke="none" 
	d="
M307.067688,153.537659 
	C300.306793,155.955139 293.474213,157.877869 286.692169,159.964676 
	C262.676086,167.354309 238.681915,174.815338 214.659195,182.183273 
	C213.339218,182.588120 211.836029,182.395599 210.182404,182.188629 
	C213.387543,175.691330 216.828400,169.486526 220.999084,163.131104 
	C223.507065,162.692352 225.350891,162.614990 227.053497,162.084457 
	C252.751770,154.077026 278.431488,146.010040 304.115570,137.957016 
	C305.083435,143.010727 306.051331,148.064438 307.067688,153.537659 
z"/>
<path fill="#FEDC11" opacity="1.000000" stroke="none" 
	d="
M251.582260,3.092344 
	C253.832901,5.032207 255.664047,6.901117 257.804810,8.916458 
	C250.868393,10.656143 243.638290,12.326548 236.373154,13.827344 
	C218.702423,17.477674 202.091339,23.992828 185.971115,31.976807 
	C168.155045,40.800697 151.712204,51.627254 136.773041,64.745560 
	C134.801682,66.476646 132.734543,68.098679 130.099518,69.766090 
	C126.308815,66.805176 123.130371,63.849380 119.951927,60.893585 
	C128.088013,54.688244 135.857178,47.913143 144.432953,42.390549 
	C165.334839,28.930225 187.739716,18.410929 211.734909,11.780245 
	C224.694717,8.199017 238.008621,5.899273 251.582260,3.092344 
z"/>
<path fill="#FEB524" opacity="1.000000" stroke="none" 
	d="
M46.833088,265.998840 
	C49.035156,285.595428 51.237225,305.191986 53.427460,324.683258 
	C48.960754,325.543945 43.395706,326.786163 37.766140,327.557648 
	C36.640488,327.711853 34.346035,326.247986 34.150223,325.230164 
	C31.600582,311.977112 28.758011,298.738281 27.164919,285.355896 
	C25.747425,273.448547 25.792583,261.367065 25.747463,249.401642 
	C29.918516,252.510590 33.480495,255.646820 37.166512,258.629791 
	C40.314751,261.177521 43.605415,263.549255 46.833088,265.998840 
z"/>
<path fill="#FFD316" opacity="1.000000" stroke="none" 
	d="
M260.343689,558.790527 
	C258.628876,557.882996 257.392120,556.491333 255.878998,556.052490 
	C245.024750,552.904724 234.114319,549.950500 222.791901,546.838501 
	C238.613556,539.159851 254.865051,531.577515 271.878021,524.023071 
	C280.491089,526.373779 288.385284,528.564209 296.176666,531.073853 
	C300.208923,532.372742 304.058777,534.237671 307.991028,535.846924 
	C301.193207,538.933533 294.324310,541.874207 287.615021,545.142578 
	C278.576904,549.545349 269.661713,554.200623 260.343689,558.790527 
z"/>
<path fill="#51A524" opacity="1.000000" stroke="none" 
	d="
M126.092834,461.424896 
	C133.841690,457.396820 141.675842,453.559235 149.633041,449.996490 
	C164.264511,443.445343 178.975510,437.071960 193.623795,430.557983 
	C194.467499,430.182800 195.046646,429.212646 195.901688,428.195892 
	C200.650375,432.359100 205.246307,436.845825 209.654465,441.794312 
	C208.658463,442.829315 207.919891,443.560547 207.031616,443.952454 
	C191.781311,450.680664 176.460510,457.252014 161.273819,464.120117 
	C155.343338,466.802124 149.705276,470.130646 143.934021,473.164734 
	C138.033890,469.356293 132.133759,465.547821 126.092834,461.424896 
z"/>
<path fill="#B8F404" opacity="1.000000" stroke="none" 
	d="
M304.067078,137.497025 
	C278.431488,146.010040 252.751770,154.077026 227.053497,162.084457 
	C225.350891,162.614990 223.507065,162.692352 221.304962,162.966949 
	C226.360443,155.031525 231.839890,147.109650 237.633484,139.041656 
	C240.723190,138.724365 243.656082,139.076950 246.249146,138.298126 
	C264.901154,132.696030 283.484222,126.864410 302.461121,121.053223 
	C303.228271,126.346230 303.623444,131.691635 304.067078,137.497025 
z"/>
<path fill="#6CBA1C" opacity="1.000000" stroke="none" 
	d="
M431.044525,314.113708 
	C423.281311,317.997589 415.518066,321.881439 407.117828,325.759735 
	C398.154572,319.745239 389.730225,313.866150 381.541504,307.675323 
	C377.135590,304.344360 373.133850,300.478851 368.949738,296.854523 
	C375.265594,291.136261 381.581421,285.417999 388.288696,279.948425 
	C389.727783,281.428711 390.587097,282.914825 391.852905,283.851746 
	C402.052216,291.401062 412.387115,298.768127 422.544586,306.372498 
	C425.598236,308.658600 428.223175,311.517334 431.044525,314.113708 
z"/>
<path fill="#9CDE0D" opacity="1.000000" stroke="none" 
	d="
M568.467163,302.024261 
	C557.783142,294.862885 547.374084,287.793030 537.153198,280.460938 
	C525.036987,271.769196 513.069763,262.869354 501.079803,254.003082 
	C499.930573,253.153259 499.077606,251.902725 498.043335,250.502045 
	C508.060608,251.109528 518.121643,252.053192 528.636902,253.417389 
	C529.579468,254.475800 529.951294,255.272751 530.573242,255.728195 
	C544.416443,265.866669 558.312744,275.932770 572.134766,286.099884 
	C575.558105,288.618011 578.757507,291.440643 582.059814,294.123291 
	C577.648315,296.748749 573.236877,299.374237 568.467163,302.024261 
z"/>
<path fill="#74C019" opacity="1.000000" stroke="none" 
	d="
M46.036053,559.365479 
	C55.474258,557.368408 65.043213,555.595825 74.645393,554.026550 
	C93.062111,551.016785 111.486763,548.051208 129.932114,545.223755 
	C135.425415,544.381653 140.998703,544.061462 146.793320,543.806091 
	C138.987289,547.751282 130.873550,551.286865 122.870064,555.056519 
	C108.182251,561.974548 93.439636,568.795776 78.981941,576.171082 
	C74.600700,578.406128 71.306160,577.800659 67.814789,575.318054 
	C60.563847,570.162109 53.388336,564.900085 46.036053,559.365479 
z"/>
<path fill="#7CC617" opacity="1.000000" stroke="none" 
	d="
M426.552368,258.916626 
	C429.001099,260.924011 430.851624,263.287354 433.172546,265.020996 
	C447.885345,276.010986 462.702118,286.861725 477.795532,297.904053 
	C470.380951,300.370209 462.655426,302.690643 454.223083,304.890869 
	C439.954590,294.819397 426.350250,284.925201 412.868958,274.866150 
	C410.327698,272.969971 408.276581,270.416840 405.999298,268.166840 
	C412.723419,265.105042 419.447571,262.043243 426.552368,258.916626 
z"/>
<path fill="#3F9829" opacity="1.000000" stroke="none" 
	d="
M405.486420,436.107910 
	C403.471191,434.649780 402.011047,432.909821 400.231995,431.604462 
	C385.693146,420.936432 371.063019,410.392517 356.555115,399.682892 
	C354.764313,398.360931 353.528381,396.287231 351.990051,394.206482 
	C355.054016,390.306335 358.163239,386.761658 361.579010,383.085693 
	C382.683655,398.164856 403.479980,413.377777 424.288116,428.574463 
	C424.952026,429.059357 425.737366,429.377960 426.787231,429.911682 
	C420.036774,432.041992 412.965210,434.034729 405.486420,436.107910 
z"/>
<path fill="#FFCA1A" opacity="1.000000" stroke="none" 
	d="
M308.350037,535.801575 
	C304.058777,534.237671 300.208923,532.372742 296.176666,531.073853 
	C288.385284,528.564209 280.491089,526.373779 272.260803,524.003113 
	C289.970886,517.962646 308.059631,511.969971 326.620239,506.294128 
	C328.301392,507.331116 329.426025,508.348907 330.734375,508.721222 
	C337.334473,510.599579 344.031830,512.149231 350.586823,514.166016 
	C352.882050,514.872192 354.868378,516.582520 356.995728,517.834290 
	C346.459381,521.560791 335.892853,525.204834 325.398865,529.046997 
	C319.771179,531.107422 314.268280,533.508728 308.350037,535.801575 
z"/>
<path fill="#489E27" opacity="1.000000" stroke="none" 
	d="
M261.236755,345.392731 
	C268.013184,343.210083 274.920380,341.619324 281.693756,339.583313 
	C300.844910,333.826599 319.941223,327.887512 339.446167,322.012207 
	C336.605377,328.451324 333.377625,334.898499 329.618896,341.726440 
	C315.859711,346.181152 302.656616,350.339386 289.393799,354.297577 
	C281.366119,356.693359 273.245880,358.779053 265.167236,361.004089 
	C263.880310,355.929810 262.593384,350.855591 261.236755,345.392731 
z"/>
<path fill="#94D90F" opacity="1.000000" stroke="none" 
	d="
M324.068420,201.568802 
	C313.475647,205.110397 302.815918,208.200211 292.201019,211.437180 
	C281.413818,214.726669 270.677826,218.183746 259.899139,221.501678 
	C258.658325,221.883621 257.287842,221.844452 255.572098,222.001312 
	C255.785812,215.949585 256.404938,209.897064 257.494720,203.421753 
	C258.941650,202.847824 259.953491,202.813400 260.888885,202.528259 
	C277.984589,197.317581 295.083405,192.116119 312.141174,186.783554 
	C313.910278,186.230499 315.424011,184.860474 317.056244,183.869537 
	C319.377869,189.640228 321.699463,195.410919 324.068420,201.568802 
z"/>
<path fill="#3F9829" opacity="1.000000" stroke="none" 
	d="
M265.095764,361.403870 
	C273.245880,358.779053 281.366119,356.693359 289.393799,354.297577 
	C302.656616,350.339386 315.859711,346.181152 329.460327,342.056000 
	C327.283661,349.441132 324.734680,356.877533 321.637329,364.710632 
	C312.387299,367.782928 303.712219,370.549072 294.976349,373.107788 
	C286.739624,375.520355 278.438965,377.714447 270.166412,380.004669 
	C268.452393,373.937653 266.738342,367.870667 265.095764,361.403870 
z"/>
<path fill="#FEF106" opacity="1.000000" stroke="none" 
	d="
M511.939392,160.424835 
	C513.981384,161.259674 516.360046,162.159546 518.131470,163.739944 
	C523.952209,168.932892 529.521545,174.406708 535.274597,179.677521 
	C536.049988,180.387924 537.324036,180.554077 538.741028,180.959396 
	C541.741882,190.765762 544.553711,200.540634 546.924622,210.421295 
	C548.288940,216.106964 548.975342,221.958328 549.882629,227.748306 
	C550.078186,228.996201 549.911255,230.300858 549.911255,232.212418 
	C544.446106,231.684433 539.435120,231.047165 534.404175,230.762680 
	C530.365906,230.534332 529.385864,227.702499 529.094604,224.687225 
	C526.944946,202.430771 519.916138,181.501663 511.939392,160.424835 
z"/>
<path fill="#5DAE20" opacity="1.000000" stroke="none" 
	d="
M368.637756,297.001648 
	C373.133850,300.478851 377.135590,304.344360 381.541504,307.675323 
	C389.730225,313.866150 398.154572,319.745239 406.794495,325.901337 
	C398.984558,331.291107 390.860901,336.533691 382.109436,341.765991 
	C375.323883,337.303772 369.076721,332.968903 363.040741,328.357605 
	C359.184784,325.411774 355.641205,322.057068 351.957581,318.885681 
	C357.413666,311.640045 362.869720,304.394409 368.637756,297.001648 
z"/>
<path fill="#74C019" opacity="1.000000" stroke="none" 
	d="
M405.652222,268.202606 
	C408.276581,270.416840 410.327698,272.969971 412.868958,274.866150 
	C426.350250,284.925201 439.954590,294.819397 453.830750,304.916565 
	C447.395264,307.703430 440.645294,310.344421 433.288879,313.083954 
	C432.371704,313.330353 432.147705,313.562042 432.010376,313.877563 
	C432.010376,313.877563 431.529053,314.002228 431.286804,314.057983 
	C428.223175,311.517334 425.598236,308.658600 422.544586,306.372498 
	C412.387115,298.768127 402.052216,291.401062 391.852905,283.851746 
	C390.587097,282.914825 389.727783,281.428711 388.590332,279.701050 
	C394.102081,275.549408 399.703583,271.893890 405.652222,268.202606 
z"/>
<path fill="#FFBC21" opacity="1.000000" stroke="none" 
	d="
M46.900581,265.536377 
	C43.605415,263.549255 40.314751,261.177521 37.166512,258.629791 
	C33.480495,255.646820 29.918516,252.510590 26.110294,249.154877 
	C25.895462,231.827515 28.196753,215.104950 33.317818,198.394165 
	C39.645214,203.582642 45.456215,209.075348 51.267216,214.568054 
	C49.834167,231.403336 48.401119,248.238602 46.900581,265.536377 
z"/>
<path fill="#FEC21E" opacity="1.000000" stroke="none" 
	d="
M51.553642,214.259583 
	C45.456215,209.075348 39.645214,203.582642 33.500610,198.045532 
	C34.575336,192.396652 35.541138,186.633133 37.485931,181.221436 
	C41.304291,170.596252 45.667362,160.166794 50.335720,149.333221 
	C52.563015,150.158722 54.371758,151.173599 55.933804,152.482819 
	C59.629116,155.579956 63.207199,158.816986 66.832672,161.997452 
	C59.924320,178.763931 54.638897,195.998734 51.553642,214.259583 
z"/>
<path fill="#9CDE0D" opacity="1.000000" stroke="none" 
	d="
M198.996002,205.337555 
	C205.829636,203.279663 212.553009,201.757233 219.143295,199.789093 
	C230.184647,196.491623 241.137924,192.899704 252.139160,189.466599 
	C253.066193,189.177307 254.075272,189.150940 255.439880,189.001587 
	C253.486435,196.222687 251.139359,203.444641 248.048355,210.844482 
	C238.423706,213.561615 229.545639,216.110245 220.661545,218.637650 
	C210.827332,221.435333 200.987610,224.213654 191.150269,227.000397 
	C193.708817,219.891144 196.267365,212.781891 198.996002,205.337555 
z"/>
<path fill="#8BD112" opacity="1.000000" stroke="none" 
	d="
M184.165421,266.002716 
	C185.032318,259.576111 185.899216,253.149506 187.348724,246.352402 
	C198.358704,242.791489 208.781754,239.586777 219.214844,236.415192 
	C227.415543,233.922241 235.628677,231.470154 243.836273,228.999908 
	C242.492416,236.195877 241.148575,243.391846 239.042999,250.803040 
	C228.494156,253.856354 218.730377,256.778503 208.912674,259.506592 
	C200.696304,261.789703 192.416916,263.845978 184.165421,266.002716 
z"/>
<path fill="#FFCA1A" opacity="1.000000" stroke="none" 
	d="
M66.909996,161.630920 
	C63.207199,158.816986 59.629116,155.579956 55.933804,152.482819 
	C54.371758,151.173599 52.563015,150.158722 50.511868,149.004608 
	C58.135933,132.337799 67.514755,116.548325 79.923058,102.153862 
	C82.892365,104.054886 85.127144,106.153313 87.556656,107.994827 
	C89.527489,109.488678 91.732224,110.673927 93.833221,111.996048 
	C83.187920,127.494331 74.309532,143.955399 66.909996,161.630920 
z"/>
<path fill="#7CC617" opacity="1.000000" stroke="none" 
	d="
M184.096893,266.466400 
	C192.416916,263.845978 200.696304,261.789703 208.912674,259.506592 
	C218.730377,256.778503 228.494156,253.856354 238.699280,251.029266 
	C238.403534,257.407684 237.689804,263.775116 236.511200,270.572937 
	C228.754578,273.145355 221.460999,275.281158 214.171509,277.430817 
	C204.501678,280.282440 194.835068,283.144958 185.167084,286.002777 
	C184.778839,281.470581 184.344864,276.941620 184.024826,272.404602 
	C183.896744,270.588867 184.019684,268.755463 184.096893,266.466400 
z"/>
<path fill="#338E2D" opacity="1.000000" stroke="none" 
	d="
M270.219086,380.376434 
	C278.438965,377.714447 286.739624,375.520355 294.976349,373.107788 
	C303.712219,370.549072 312.387299,367.782928 321.461304,365.056580 
	C320.217987,373.065338 318.602295,381.124878 316.516113,389.594177 
	C314.275238,390.401703 312.475159,390.699066 310.739441,391.213593 
	C299.779510,394.462341 288.833832,397.759216 277.883453,401.040222 
	C275.346222,394.276215 272.808990,387.512207 270.219086,380.376434 
z"/>
<path fill="#489E27" opacity="1.000000" stroke="none" 
	d="
M144.101410,473.488098 
	C149.705276,470.130646 155.343338,466.802124 161.273819,464.120117 
	C176.460510,457.252014 191.781311,450.680664 207.031616,443.952454 
	C207.919891,443.560547 208.658463,442.829315 209.788300,442.103943 
	C213.353851,445.411041 216.597794,448.870148 219.656738,452.790985 
	C217.156403,454.499786 214.910858,455.904053 212.514328,456.968384 
	C197.126724,463.802429 181.694611,470.536407 166.317078,477.392883 
	C165.044876,477.960114 164.068588,479.190918 162.954803,480.113403 
	C156.726120,478.012756 150.497452,475.912109 144.101410,473.488098 
z"/>
<path fill="#94D90F" opacity="1.000000" stroke="none" 
	d="
M243.908035,228.593155 
	C235.628677,231.470154 227.415543,233.922241 219.214844,236.415192 
	C208.781754,239.586777 198.358704,242.791489 187.548325,245.990784 
	C188.450958,239.931763 189.736618,233.863831 191.086273,227.398163 
	C200.987610,224.213654 210.827332,221.435333 220.661545,218.637650 
	C229.545639,216.110245 238.423706,213.561615 247.724274,211.035889 
	C246.756012,216.761734 245.367905,222.474075 243.908035,228.593155 
z"/>
<path fill="#000000" opacity="1.000000" stroke="none" 
	d="
M602.028259,34.962910 
	C604.770325,46.023235 601.794678,55.519855 596.096924,64.354065 
	C582.784424,84.994652 551.437134,87.018341 535.055420,69.442482 
	C524.932312,58.581493 521.463745,45.378166 525.521973,31.160145 
	C529.718323,16.458210 539.855103,6.116524 554.879089,3.343814 
	C575.118958,-0.391489 594.263794,7.893172 601.948975,32.029819 
	C602.190491,32.788242 601.995605,33.685604 602.028259,34.962910 
M598.057434,35.490185 
	C595.718018,30.463663 593.961670,25.049685 590.928345,20.484232 
	C582.282471,7.471432 565.038879,3.888735 551.613586,8.825724 
	C535.903381,14.602957 525.053955,31.168192 528.979248,49.010750 
	C533.355713,68.903847 551.508301,80.479614 570.545288,76.546463 
	C590.053955,72.515846 601.066040,55.568600 598.057434,35.490185 
z"/>
<path fill="#9CDE0D" opacity="1.000000" stroke="none" 
	d="
M317.020142,183.495117 
	C315.424011,184.860474 313.910278,186.230499 312.141174,186.783554 
	C295.083405,192.116119 277.984589,197.317581 260.888885,202.528259 
	C259.953491,202.813400 258.941650,202.847824 257.566132,203.000916 
	C257.838013,197.137253 258.509186,191.271667 259.519836,185.181885 
	C264.957245,183.633438 270.099274,182.457321 275.143951,180.954468 
	C286.084564,177.695160 296.987122,174.305679 307.869293,170.856110 
	C309.009277,170.494720 309.908844,169.374832 310.983704,168.241653 
	C313.026337,172.957886 315.005188,178.039307 317.020142,183.495117 
z"/>
<path fill="#FEC21E" opacity="1.000000" stroke="none" 
	d="
M357.389709,517.890991 
	C354.868378,516.582520 352.882050,514.872192 350.586823,514.166016 
	C344.031830,512.149231 337.334473,510.599579 330.734375,508.721222 
	C329.426025,508.348907 328.301392,507.331116 327.026733,506.240417 
	C344.274414,500.594086 361.993164,497.496979 380.799805,496.120361 
	C388.522736,498.180054 395.509644,499.937012 402.355286,502.134216 
	C404.763519,502.907166 406.825500,504.758881 409.045593,506.118042 
	C399.439240,508.076385 389.794739,509.867493 380.238678,512.046448 
	C372.697235,513.765991 365.264618,515.962769 357.389709,517.890991 
z"/>
<path fill="#5DAE20" opacity="1.000000" stroke="none" 
	d="
M236.129318,308.945740 
	C236.400436,309.308807 236.888824,309.659393 236.910446,310.036743 
	C237.310440,317.018311 237.654755,324.003082 237.811951,331.727112 
	C232.723007,334.033234 227.798904,335.501770 222.951233,337.189789 
	C216.587219,339.405853 210.283463,341.794861 203.953796,344.109528 
	C200.316818,336.988037 196.679855,329.866577 193.477020,322.320984 
	C207.983871,317.579865 222.056595,313.262817 236.129318,308.945740 
z"/>
<path fill="#6CBA1C" opacity="1.000000" stroke="none" 
	d="
M236.076019,308.483673 
	C222.056595,313.262817 207.983871,317.579865 193.539093,321.950592 
	C191.126312,315.931335 189.085587,309.858368 187.477081,303.340424 
	C195.640869,300.545319 203.349091,298.114624 211.110352,295.867126 
	C219.325211,293.488281 227.590515,291.283691 235.833786,289.002991 
	C235.896759,295.342499 235.959732,301.682068 236.076019,308.483673 
z"/>
<path fill="#A4E40A" opacity="1.000000" stroke="none" 
	d="
M582.299683,294.060059 
	C578.757507,291.440643 575.558105,288.618011 572.134766,286.099884 
	C558.312744,275.932770 544.416443,265.866669 530.573242,255.728195 
	C529.951294,255.272751 529.579468,254.475800 529.046143,253.502182 
	C539.376099,254.961334 549.755615,256.731110 560.122986,258.569000 
	C562.670349,259.020569 565.178223,259.694427 567.908997,260.605591 
	C569.046387,262.615936 569.581970,264.805695 570.976624,265.872772 
	C579.466858,272.369049 588.157715,278.602875 596.759705,284.954010 
	C597.253296,285.318451 597.553772,285.944427 598.001831,286.796112 
	C593.660522,289.090424 589.261475,291.037354 584.268188,293.079651 
	C583.372742,293.321350 583.152771,293.546753 583.013794,293.851227 
	C583.013794,293.851227 582.539551,293.996857 582.299683,294.060059 
z"/>
<path fill="#FFD316" opacity="1.000000" stroke="none" 
	d="
M93.990692,111.683502 
	C91.732224,110.673927 89.527489,109.488678 87.556656,107.994827 
	C85.127144,106.153313 82.892365,104.054886 80.230690,102.012886 
	C81.295509,99.814659 82.386101,97.353905 84.162025,95.578804 
	C95.777382,83.968842 107.541046,72.507248 119.604095,60.945381 
	C123.130371,63.849380 126.308815,66.805176 129.795700,69.905853 
	C126.404694,73.868370 122.494415,77.505829 119.047592,81.539345 
	C110.633560,91.385597 102.434044,101.415184 93.990692,111.683502 
z"/>
<path fill="#3F9829" opacity="1.000000" stroke="none" 
	d="
M163.161713,480.454468 
	C164.068588,479.190918 165.044876,477.960114 166.317078,477.392883 
	C181.694611,470.536407 197.126724,463.802429 212.514328,456.968384 
	C214.910858,455.904053 217.156403,454.499786 219.791626,453.102295 
	C223.595276,457.290192 227.079025,461.628510 230.797882,466.259613 
	C217.450134,474.421173 204.455536,480.320038 189.568817,482.224182 
	C180.565933,483.375763 172.030670,482.540436 163.161713,480.454468 
z"/>
<path fill="#74C019" opacity="1.000000" stroke="none" 
	d="
M235.905670,288.553223 
	C227.590515,291.283691 219.325211,293.488281 211.110352,295.867126 
	C203.349091,298.114624 195.640869,300.545319 187.537079,302.948547 
	C186.452560,297.634216 185.740295,292.266815 185.097549,286.451080 
	C194.835068,283.144958 204.501678,280.282440 214.171509,277.430817 
	C221.460999,275.281158 228.754578,273.145355 236.439468,271.003082 
	C236.547577,276.703003 236.262558,282.403198 235.905670,288.553223 
z"/>
<path fill="#7CC617" opacity="1.000000" stroke="none" 
	d="
M134.145233,377.443970 
	C137.005005,375.112701 139.866898,372.694794 143.145279,371.175659 
	C152.284821,366.940430 161.602997,363.091370 170.829590,359.041901 
	C171.549896,358.725769 172.106522,358.036682 172.895462,357.197876 
	C179.310959,361.359528 185.570190,365.844208 191.636200,370.782959 
	C186.195572,373.561432 180.870590,375.727722 175.721619,378.252838 
	C170.046555,381.035919 164.533081,384.148499 158.949219,387.117523 
	C150.745285,384.000854 142.541367,380.884186 134.145233,377.443970 
z"/>
<path fill="#FFBC21" opacity="1.000000" stroke="none" 
	d="
M409.491180,506.070435 
	C406.825500,504.758881 404.763519,502.907166 402.355286,502.134216 
	C395.509644,499.937012 388.522736,498.180054 381.242554,496.097687 
	C385.019348,495.296387 389.136963,494.155182 393.272125,494.087402 
	C407.440125,493.855072 421.676483,493.162781 435.770447,494.210449 
	C453.628082,495.537933 471.436584,498.033539 488.570923,503.802063 
	C491.131622,504.664154 493.784149,505.253357 496.204926,507.140198 
	C492.167297,506.737640 488.128693,506.344513 484.092255,505.930298 
	C477.898743,505.294708 471.709930,504.611694 465.512970,504.012268 
	C461.428406,503.617249 457.307312,502.862640 453.247192,503.084808 
	C438.800049,503.875244 424.372040,505.015228 409.491180,506.070435 
z"/>
<path fill="#51A524" opacity="1.000000" stroke="none" 
	d="
M204.096924,344.429626 
	C210.283463,341.794861 216.587219,339.405853 222.951233,337.189789 
	C227.798904,335.501770 232.723007,334.033234 237.834213,332.174377 
	C239.037491,337.549164 240.041260,343.212952 240.991577,348.885742 
	C241.392578,351.279419 241.680954,353.691986 241.726013,356.669800 
	C233.544540,359.854950 225.657608,362.466278 217.770676,365.077637 
	C213.260468,358.301666 208.750259,351.525665 204.096924,344.429626 
z"/>
<path fill="#51A524" opacity="1.000000" stroke="none" 
	d="
M351.641663,319.052124 
	C355.641205,322.057068 359.184784,325.411774 363.040741,328.357605 
	C369.076721,332.968903 375.323883,337.303772 381.794312,341.902313 
	C375.631653,346.975922 369.156281,351.902924 362.175171,356.682373 
	C355.379700,352.095581 349.049225,347.711823 342.844086,343.157349 
	C341.913757,342.474487 341.570618,340.991760 340.955841,339.879028 
	C344.412445,332.992218 347.869080,326.105377 351.641663,319.052124 
z"/>
<path fill="#278530" opacity="1.000000" stroke="none" 
	d="
M277.936920,401.425293 
	C288.833832,397.759216 299.779510,394.462341 310.739441,391.213593 
	C312.475159,390.699066 314.275238,390.401703 316.439484,390.004456 
	C315.168030,394.217804 317.355469,399.323120 312.787628,403.024536 
	C305.378204,409.028442 298.536896,415.730835 291.386566,422.060120 
	C290.343842,422.983185 288.918884,423.474426 287.405060,424.312592 
	C284.185547,416.617584 281.087982,409.213959 277.936920,401.425293 
z"/>
<path fill="#74C019" opacity="1.000000" stroke="none" 
	d="
M159.114868,387.428284 
	C164.533081,384.148499 170.046555,381.035919 175.721619,378.252838 
	C180.870590,375.727722 186.195572,373.561432 191.774216,371.092743 
	C195.662796,374.388916 199.220108,377.829285 202.758942,381.896820 
	C201.372650,383.404083 200.084045,384.453705 198.623856,385.136169 
	C190.725342,388.827637 182.784378,392.428284 174.858047,396.060211 
	C169.665527,393.286499 164.473007,390.512787 159.114868,387.428284 
z"/>
<path fill="#6CBA1C" opacity="1.000000" stroke="none" 
	d="
M175.014908,396.381836 
	C182.784378,392.428284 190.725342,388.827637 198.623856,385.136169 
	C200.084045,384.453705 201.372650,383.404083 202.895050,382.207428 
	C206.641724,386.692932 210.233780,391.494995 213.624222,396.661438 
	C206.265900,400.387146 199.109192,403.748383 191.952484,407.109619 
	C186.358917,403.640900 180.765335,400.172180 175.014908,396.381836 
z"/>
<path fill="#489E27" opacity="1.000000" stroke="none" 
	d="
M217.955414,365.370117 
	C225.657608,362.466278 233.544540,359.854950 241.771545,357.096527 
	C244.082947,364.682251 246.054291,372.415070 247.666214,380.564270 
	C242.829071,382.001862 238.351318,383.023132 233.873596,384.044373 
	C228.629105,377.917114 223.384628,371.789856 217.955414,365.370117 
z"/>
<path fill="#489E27" opacity="1.000000" stroke="none" 
	d="
M340.625000,340.056763 
	C341.570618,340.991760 341.913757,342.474487 342.844086,343.157349 
	C349.049225,347.711823 355.379700,352.095581 361.859283,356.821228 
	C356.944794,361.665588 351.840515,366.223511 346.109924,370.768707 
	C341.377533,368.171722 337.271484,365.587524 333.165405,363.003296 
	C335.541656,355.413696 337.917908,347.824097 340.625000,340.056763 
z"/>
<path fill="#5DAE20" opacity="1.000000" stroke="none" 
	d="
M192.091507,407.420471 
	C199.109192,403.748383 206.265900,400.387146 213.792938,396.969971 
	C217.111572,402.685242 220.059845,408.456421 222.689178,414.639343 
	C218.232010,417.070923 214.093781,419.090759 209.955551,421.110596 
	C205.463516,417.730865 200.969849,414.353333 196.480377,410.970184 
	C195.057983,409.898254 193.646835,408.811401 192.091507,407.420471 
z"/>
<path fill="#78C318" opacity="1.000000" stroke="none" 
	d="
M462.466766,477.903107 
	C464.394135,476.887726 466.787720,475.949005 469.175537,474.995697 
	C471.748901,473.968292 474.316833,472.927216 476.943756,471.529419 
	C488.415009,472.777588 499.869080,474.154999 511.231934,476.072693 
	C520.440063,477.626770 529.538513,479.830383 538.199829,481.644165 
	C513.351685,480.432343 488.141083,479.202820 462.466766,477.903107 
z"/>
<path fill="#3F9829" opacity="1.000000" stroke="none" 
	d="
M332.997467,363.347351 
	C337.271484,365.587524 341.377533,368.171722 345.796417,370.902405 
	C339.119446,378.521240 332.129669,385.993652 325.139893,393.466034 
	C324.608459,393.157166 324.077057,392.848328 323.545624,392.539490 
	C326.640259,382.923462 329.734894,373.307434 332.997467,363.347351 
z"/>
<path fill="#338E2D" opacity="1.000000" stroke="none" 
	d="
M234.019958,384.354126 
	C238.351318,383.023132 242.829071,382.001862 247.720184,380.967682 
	C251.625198,390.833923 255.116837,400.713135 258.608490,410.592316 
	C258.333923,410.836334 258.059357,411.080322 257.784790,411.324341 
	C249.911972,402.437500 242.039154,393.550690 234.019958,384.354126 
z"/>
<path fill="#51A524" opacity="1.000000" stroke="none" 
	d="
M210.089539,421.418304 
	C214.093781,419.090759 218.232010,417.070923 222.744659,415.006531 
	C227.418274,423.111511 229.942535,431.819092 231.060974,441.141327 
	C224.115158,434.669556 217.169342,428.197784 210.089539,421.418304 
z"/>
<path fill="#78C318" opacity="1.000000" stroke="none" 
	d="
M451.337799,478.948669 
	C451.523499,478.602539 452.029968,478.326080 452.839661,478.051392 
	C452.648102,478.374908 452.153320,478.696625 451.337799,478.948669 
z"/>
<path fill="#6CBA1C" opacity="1.000000" stroke="none" 
	d="
M513.196350,362.142090 
	C513.087402,361.940094 513.257568,361.623016 513.653259,361.156311 
	C513.744324,361.346802 513.609863,361.686890 513.196350,362.142090 
z"/>
<path fill="#9CDE0D" opacity="1.000000" stroke="none" 
	d="
M583.280640,293.876160 
	C583.152771,293.546753 583.372742,293.321350 583.904419,293.107941 
	C583.939209,293.327576 583.743347,293.614349 583.280640,293.876160 
z"/>
<path fill="#74C019" opacity="1.000000" stroke="none" 
	d="
M149.287186,543.919373 
	C149.148575,543.569885 149.373047,543.336792 149.922134,543.120911 
	C149.961227,543.353882 149.762405,543.653137 149.287186,543.919373 
z"/>
<path fill="#78C318" opacity="1.000000" stroke="none" 
	d="
M426.282166,479.875214 
	C426.153900,479.550690 426.371429,479.325348 426.898132,479.108673 
	C426.933563,479.325104 426.740448,479.610809 426.282166,479.875214 
z"/>
<path fill="#6CBA1C" opacity="1.000000" stroke="none" 
	d="
M432.285370,313.909119 
	C432.147705,313.562042 432.371704,313.330353 432.919067,313.115143 
	C432.957306,313.345428 432.758850,313.643036 432.285370,313.909119 
z"/>
<path fill="#FFFFFF" opacity="1.000000" stroke="none" 
	d="
M598.360596,35.813942 
	C601.066040,55.568600 590.053955,72.515846 570.545288,76.546463 
	C551.508301,80.479614 533.355713,68.903847 528.979248,49.010750 
	C525.053955,31.168192 535.903381,14.602957 551.613586,8.825724 
	C565.038879,3.888735 582.282471,7.471432 590.928345,20.484232 
	C593.961670,25.049685 595.718018,30.463663 598.360596,35.813942 
M544.078308,62.566013 
	C544.377502,62.745213 544.676636,62.924412 545.380737,63.845276 
	C547.154480,63.845276 548.928223,63.845276 551.072632,63.845276 
	C551.072632,57.531136 551.072632,51.433090 551.072632,43.668236 
	C556.009583,45.214451 560.756348,45.669647 564.128479,48.062237 
	C567.185242,50.231071 568.914429,54.412441 570.926270,57.882023 
	C574.709290,64.406013 575.197876,64.732063 583.293091,63.408447 
	C579.509460,57.699188 575.862915,52.102619 572.089661,46.592873 
	C571.434204,45.635765 570.243164,45.045437 569.100586,44.125523 
	C570.638733,43.417477 572.088196,42.785206 573.507141,42.090546 
	C577.793457,39.992176 579.976990,35.487869 578.924561,29.757019 
	C578.136047,25.463030 575.828186,21.523144 571.160400,21.130119 
	C562.463318,20.397825 553.700623,20.443966 544.446411,20.073347 
	C544.341003,20.371666 544.235596,20.669983 543.958069,21.895687 
	C544.015442,35.273113 544.072815,48.650536 544.078308,62.566013 
z"/>
<path fill="#1F1D1D" opacity="1.000000" stroke="none" 
	d="
M544.965271,20.166115 
	C553.700623,20.443966 562.463318,20.397825 571.160400,21.130119 
	C575.828186,21.523144 578.136047,25.463030 578.924561,29.757019 
	C579.976990,35.487869 577.793457,39.992176 573.507141,42.090546 
	C572.088196,42.785206 570.638733,43.417477 569.100586,44.125523 
	C570.243164,45.045437 571.434204,45.635765 572.089661,46.592873 
	C575.862915,52.102619 579.509460,57.699188 583.293091,63.408447 
	C575.197876,64.732063 574.709290,64.406013 570.926270,57.882023 
	C568.914429,54.412441 567.185242,50.231071 564.128479,48.062237 
	C560.756348,45.669647 556.009583,45.214451 551.072632,43.668236 
	C551.072632,51.433090 551.072632,57.531136 551.072632,63.845276 
	C548.928223,63.845276 547.154480,63.845276 545.086182,63.255501 
	C544.679443,62.340706 544.458984,62.128120 544.130127,62.027962 
	C544.072815,48.650536 544.015442,35.273113 544.234619,21.361176 
	C544.736938,20.657633 544.888306,20.437450 544.965271,20.166115 
M550.998657,36.338020 
	C551.613098,37.224033 552.188660,38.842247 552.848267,38.877258 
	C557.137329,39.104916 561.526489,39.498196 565.720459,38.825356 
	C569.143860,38.276154 572.600647,36.421200 571.962402,31.817259 
	C571.377563,27.599201 568.687744,25.853497 564.491028,25.970776 
	C560.084167,26.093927 555.671204,25.998333 550.998230,25.998333 
	C550.998230,29.477644 550.998230,32.427082 550.998657,36.338020 
z"/>
<path fill="#000000" opacity="1.000000" stroke="none" 
	d="
M544.705811,20.119732 
	C544.888306,20.437450 544.736938,20.657633 544.320618,20.897482 
	C544.235596,20.669983 544.341003,20.371666 544.705811,20.119732 
z"/>
<path fill="#000000" opacity="1.000000" stroke="none" 
	d="
M544.104248,62.296989 
	C544.458984,62.128120 544.679443,62.340706 544.883667,62.884666 
	C544.676636,62.924412 544.377502,62.745213 544.104248,62.296989 
z"/>
<path fill="#FFFFFF" opacity="1.000000" stroke="none" 
	d="
M550.998413,35.857269 
	C550.998230,32.427082 550.998230,29.477644 550.998230,25.998333 
	C555.671204,25.998333 560.084167,26.093927 564.491028,25.970776 
	C568.687744,25.853497 571.377563,27.599201 571.962402,31.817259 
	C572.600647,36.421200 569.143860,38.276154 565.720459,38.825356 
	C561.526489,39.498196 557.137329,39.104916 552.848267,38.877258 
	C552.188660,38.842247 551.613098,37.224033 550.998413,35.857269 
z"/>
</svg>